<svg width="185" height="45" viewBox="0 0 185 45" fill="none" xmlns="http://www.w3.org/2000/svg">
<path d="M5.4 32.12C4.28 32.12 3.30667 31.9067 2.48 31.48C1.38667 30.9733 0.84 30.2 0.84 29.16C0.84 28.04 1.44 27.1867 2.64 26.6C3.09333 26.3333 3.58667 26.1467 4.12 26.04C4.68 25.9333 5.25333 25.88 5.84 25.88C6.08 25.88 6.2 25.92 6.2 26C6.2 26.08 6.08 26.12 5.84 26.12C4.82667 26.12 3.94667 26.3333 3.2 26.76C2.24 27.24 1.76 27.96 1.76 28.92C1.76 29.72 2.12 30.3467 2.84 30.8C3.48 31.2 4.21333 31.4 5.04 31.4C7.33333 31.4 9.41333 30.36 11.28 28.28C11.92 27.5867 12.5733 26.7333 13.24 25.72C13.9067 24.7067 14.5733 23.5333 15.24 22.2C15.5333 21.6133 15.9333 20.7867 16.44 19.72C16.9467 18.6267 17.56 17.2667 18.28 15.64C18.8933 14.2533 19.4667 13.0267 20 11.96C20.5333 10.8933 21.0133 9.97333 21.44 9.2L17.96 8.44C17.64 11.1067 17.08 13.7067 16.28 16.24C15.7467 17.9467 15.1467 19.5333 14.48 21C13.84 22.44 13.1067 23.76 12.28 24.96C9.98667 28.3733 7.50667 30.08 4.84 30.08C4.33333 30.08 4.08 29.9867 4.08 29.8C4.08 29.6667 4.30667 29.6 4.76 29.6C7.21333 29.6 9.53333 27.92 11.72 24.56C13.2667 22.1867 14.56 19.4133 15.6 16.24C16 14.96 16.3467 13.6533 16.64 12.32C16.96 10.9867 17.2133 9.65333 17.4 8.32C13.96 7.6 11.2533 7.24 9.28 7.24C4.98667 7.24 2.84 8.72 2.84 11.68C2.84 13.6533 3.97333 15.4133 6.24 16.96C6.34667 17.04 6.4 17.1067 6.4 17.16C6.4 17.24 6.34667 17.28 6.24 17.28C6.21333 17.28 6.14667 17.2533 6.04 17.2C3.05333 15.4933 1.56 13.4533 1.56 11.08C1.56 9.4 2.37333 8.16 4 7.36C4.61333 7.06667 5.30667 6.85333 6.08 6.72C6.85333 6.56 7.72 6.48 8.68 6.48C10.7867 6.48 13.72 6.84 17.48 7.56C17.5867 6.78667 17.6667 6.02667 17.72 5.28C17.7733 4.50667 17.8 3.74667 17.8 3C17.8 2.86667 17.8 2.72 17.8 2.56C17.8 2.37333 17.7867 2.14667 17.76 1.88C17.7333 1.64 17.72 1.42666 17.72 1.24C17.72 1.05333 17.72 0.906665 17.72 0.8C17.72 0.613332 17.7733 0.519999 17.88 0.519999C17.9067 0.519999 17.9467 0.586665 18 0.719998C18.16 1.6 18.24 2.73333 18.24 4.12C18.24 4.68 18.2133 5.25333 18.16 5.84C18.1333 6.42667 18.0933 7.04 18.04 7.68C18.0933 7.68 18.44 7.73333 19.08 7.84C19.72 7.94667 20.6533 8.13333 21.88 8.4C24.2533 4.42666 26.8667 2.44 29.72 2.44C31.4533 2.44 32.32 3.16 32.32 4.6C32.32 4.86666 32.2667 5 32.16 5C32.0533 5 32 4.89333 32 4.68C32 3.64 31.3067 3.12 29.92 3.12C28 3.12 25.9733 5 23.84 8.76C25.2267 9.02667 26.4267 9.22667 27.44 9.36C28.48 9.46667 29.3467 9.52 30.04 9.52C32.6267 9.52 33.92 8.88 33.92 7.6C33.92 7.41333 33.8933 7.24 33.84 7.08C33.7333 6.97333 33.68 6.88 33.68 6.8C33.68 6.72 33.7067 6.68 33.76 6.68C33.92 6.68 34.08 6.90666 34.24 7.36C34.3467 7.68 34.4 7.97333 34.4 8.24C34.4 9.86667 33.0933 10.68 30.48 10.68C28.9867 10.68 26.6 10.32 23.32 9.6C23.24 9.78667 22.8667 10.56 22.2 11.92C21.5333 13.28 20.5733 15.24 19.32 17.8C20.0933 17.3733 21.64 17.16 23.96 17.16C25.24 17.16 26.3867 17.2267 27.4 17.36C28.44 17.4933 29.3467 17.68 30.12 17.92C30.2533 17.9733 30.32 18.0267 30.32 18.08C30.32 18.16 30.2667 18.2 30.16 18.2C30.0533 18.2 29.8933 18.2 29.68 18.2C29.4667 18.1733 29.2267 18.1467 28.96 18.12C28.4 18.04 27.9733 18 27.68 18C26.7733 18 25.8933 18.04 25.04 18.12C24.1867 18.1733 23.3733 18.28 22.6 18.44C20.0667 18.8933 18.8 19.6667 18.8 20.76C18.8 20.7867 18.8 20.84 18.8 20.92C18.8267 20.9733 18.8533 21.04 18.88 21.12C18.96 21.3067 19 21.44 19 21.52C18.7867 21.52 18.6267 21.3467 18.52 21C18.3067 20.68 18.1867 20.3867 18.16 20.12C17.2533 21.8533 16.3867 23.3733 15.56 24.68C14.76 25.96 13.9733 27.04 13.2 27.92C10.6933 30.72 8.09333 32.12 5.4 32.12ZM32.9472 28.76C31.0539 28.76 30.1072 27.5333 30.1072 25.08C30.1072 24.7067 30.1205 24.3067 30.1472 23.88C30.2005 23.4267 30.2805 22.9467 30.3872 22.44C30.2805 22.36 30.1739 22.2533 30.0672 22.12C29.9605 21.96 29.8539 21.7733 29.7472 21.56C29.8539 21.5867 29.9605 21.64 30.0672 21.72C30.2005 21.7733 30.3605 21.8267 30.5472 21.88C30.8405 20.5467 31.6405 19.2267 32.9472 17.92C34.3605 16.48 35.6939 15.76 36.9472 15.76C37.2405 15.76 37.3872 15.8 37.3872 15.88C37.3872 15.9333 37.2005 16.0667 36.8272 16.28C35.8405 16.8133 34.9205 17.64 34.0672 18.76C33.1605 19.88 32.5072 21 32.1072 22.12C32.1339 22.1467 32.1472 22.16 32.1472 22.16C32.1472 22.16 32.1605 22.1733 32.1872 22.2C33.4672 22.2 34.8005 21.5867 36.1872 20.36C37.5739 19.1333 38.2672 17.88 38.2672 16.6C38.2672 16.2267 38.1605 15.8667 37.9472 15.52C37.7605 15.2 37.4672 15.04 37.0672 15.04C36.5605 15.04 35.9605 15.24 35.2672 15.64C34.6005 16.0667 34.2272 16.28 34.1472 16.28C34.0939 16.28 34.0672 16.2667 34.0672 16.24C34.0672 15.92 34.5339 15.5733 35.4672 15.2C36.2672 14.88 36.8939 14.72 37.3472 14.72C37.9872 14.72 38.4939 14.8933 38.8672 15.24C39.2939 15.5867 39.5072 16.0667 39.5072 16.68C39.5072 18.0933 38.5872 19.4667 36.7472 20.8C35.0939 21.9733 33.4939 22.6267 31.9472 22.76C31.7339 23.4 31.6272 24.0133 31.6272 24.6C31.6272 26.8133 32.4272 27.92 34.0272 27.92C35.2539 27.92 36.5339 27.3867 37.8672 26.32C38.9872 25.44 39.9205 24.3733 40.6672 23.12C40.9072 22.7467 41.1072 22.56 41.2672 22.56C41.2939 22.56 41.3072 22.5867 41.3072 22.64C41.3072 22.7467 41.2005 22.9867 40.9872 23.36C40.1605 24.6667 39.0005 25.8667 37.5072 26.96C35.8805 28.16 34.3605 28.76 32.9472 28.76ZM44.1041 28C42.7707 28 42.1041 27.32 42.1041 25.96C42.1041 24.4933 42.7841 21.92 44.1441 18.24C43.4774 19.1467 43.0107 19.6 42.7441 19.6C42.6641 19.6 42.6241 19.56 42.6241 19.48C42.6241 19.4533 42.9707 18.9867 43.6641 18.08C44.0107 17.6267 44.2774 17.28 44.4641 17.04C44.6774 16.7733 44.7974 16.6 44.8241 16.52C44.9574 16.1467 45.1441 15.6667 45.3841 15.08C45.6241 14.4933 45.9041 13.8267 46.2241 13.08C46.7841 11.7467 47.3707 10.4133 47.9841 9.08C48.6241 7.72 49.2774 6.36 49.9441 5C50.1574 4.54667 50.4241 4 50.7441 3.36C51.0907 2.72 51.4907 1.98667 51.9441 1.16C52.1841 0.706666 52.7307 0.479999 53.5841 0.479999C54.0641 0.479999 54.3041 0.599999 54.3041 0.839999C54.3041 0.919998 54.2907 0.986665 54.2641 1.04C53.7841 2.10667 53.0641 3.70667 52.1041 5.84C51.9974 6.05333 51.8774 6.32 51.7441 6.64C51.6107 6.96 51.4374 7.33333 51.2241 7.76C51.0374 7.86667 50.7974 8.06667 50.5041 8.36C50.5041 8.36 50.3574 8.64 50.0641 9.2C49.7707 9.76 49.3441 10.5867 48.7841 11.68C45.0241 18.9867 43.1441 23.76 43.1441 26C43.1441 26.88 43.4374 27.32 44.0241 27.32C44.6907 27.32 45.4774 26.9467 46.3841 26.2C47.3174 25.4267 47.7574 25.04 47.7041 25.04C47.8107 25.04 47.8641 25.0933 47.8641 25.2C47.8641 25.2533 47.8107 25.36 47.7041 25.52C46.5307 27.1733 45.3307 28 44.1041 28ZM52.4275 14.52C51.8942 14.52 51.6275 14.24 51.6275 13.68C51.6275 13.3867 51.7875 13.0667 52.1075 12.72C52.2942 12.5067 52.4542 12.3333 52.5875 12.2C52.7475 12.0667 52.8942 11.9733 53.0275 11.92C53.9875 11.4667 54.5608 11.24 54.7475 11.24C54.8275 11.24 54.8675 11.2667 54.8675 11.32C54.8675 11.4 54.5608 11.7867 53.9475 12.48C53.9208 12.5067 53.8675 12.6267 53.7875 12.84C53.7075 13.0267 53.5608 13.32 53.3475 13.72C53.1075 14.2533 52.8008 14.52 52.4275 14.52ZM50.0275 27.36C48.6675 27.36 47.9875 26.68 47.9875 25.32C47.9875 24.3067 48.2542 23.0267 48.7875 21.48C48.6808 21.6667 48.5608 21.8533 48.4275 22.04C48.3208 22.2267 48.2008 22.4133 48.0675 22.6C47.7208 23.1867 47.4808 23.48 47.3475 23.48C47.2942 23.48 47.2675 23.44 47.2675 23.36C47.2675 23.1467 47.3475 22.9467 47.5075 22.76C48.1475 21.88 48.8542 20.6133 49.6275 18.96C49.7075 18.7467 49.8142 18.48 49.9475 18.16C50.1075 17.84 50.2942 17.48 50.5075 17.08C50.6408 16.84 50.9742 16.72 51.5075 16.72C51.9608 16.72 52.1875 16.8533 52.1875 17.12C52.1875 17.3867 52.0675 17.7867 51.8275 18.32C51.5342 18.8533 51.2942 19.16 51.1075 19.24C49.7208 22.0133 49.0275 24.0533 49.0275 25.36C49.0275 26.24 49.3208 26.68 49.9075 26.68C50.8675 26.68 51.9208 25.9867 53.0675 24.6C54.2675 23.2133 54.8542 22.52 54.8275 22.52C54.8808 22.52 54.9075 22.56 54.9075 22.64C54.9075 22.6667 54.8808 22.76 54.8275 22.92C54.5875 23.3467 54.2808 23.7867 53.9075 24.24C53.5608 24.6667 53.1608 25.12 52.7075 25.6C51.5342 26.7733 50.6408 27.36 50.0275 27.36ZM56.5406 28.28C55.5006 28.28 54.9806 27.6133 54.9806 26.28C54.9806 24.6533 55.594 22.9867 56.8206 21.28C56.394 20.24 56.1806 19.1333 56.1806 17.96C56.1806 16.8133 56.4073 15.8133 56.8606 14.96C57.7406 13.28 58.834 12.44 60.1406 12.44C61.794 12.44 62.754 13.8533 63.0206 16.68C64.354 16.7333 65.0206 17.4267 65.0206 18.76C65.0206 19.8533 64.8473 20.4 64.5006 20.4C64.394 20.4 64.3406 20.32 64.3406 20.16C64.3406 20.1067 64.3406 20.0533 64.3406 20C64.3673 19.9467 64.394 19.88 64.4206 19.8C64.4206 19.6933 64.4206 19.6133 64.4206 19.56C64.4473 19.48 64.4606 19.4267 64.4606 19.4C64.4606 18.9733 64.3273 18.6267 64.0606 18.36C63.7673 18.0667 63.434 17.92 63.0606 17.92C62.7406 21.1733 61.954 23.6667 60.7006 25.4H61.9406C61.594 25.6133 61.2873 25.72 61.0206 25.72C60.9406 25.72 60.874 25.7067 60.8206 25.68C60.7406 25.6533 60.6606 25.64 60.5806 25.64C60.6873 25.64 60.2206 26.08 59.1806 26.96C58.1406 27.84 57.2606 28.28 56.5406 28.28ZM57.2606 20.84C58.8873 18.6533 60.594 17.2933 62.3806 16.76C61.8473 14.4667 61.114 13.32 60.1806 13.32C59.3273 13.32 58.5406 14.16 57.8206 15.84C57.5806 16.3733 57.4073 16.9467 57.3006 17.56C57.194 18.1467 57.1406 18.76 57.1406 19.4C57.1406 19.9067 57.1806 20.3867 57.2606 20.84ZM59.4206 25.2C60.0606 24.6133 60.714 23.4667 61.3806 21.76C62.074 20 62.4206 18.7067 62.4206 17.88C61.834 17.96 60.914 18.5067 59.6606 19.52C58.434 20.5067 57.674 21.2933 57.3806 21.88C57.9406 23.9067 58.6206 25.0133 59.4206 25.2ZM56.6606 27.08C57.4073 27.08 58.274 26.52 59.2606 25.4C58.3806 25.2933 57.6606 24.24 57.1006 22.24C56.2206 23.7067 55.7806 24.8533 55.7806 25.68C55.7806 26.6133 56.074 27.08 56.6606 27.08ZM65.3134 28.84C65.0734 28.84 64.9534 28.6667 64.9534 28.32V28.24C65.0601 27.8667 65.1668 27.4 65.2734 26.84C65.4068 26.28 65.5534 25.6267 65.7134 24.88C65.8734 24.1333 66.0734 23.2 66.3134 22.08C66.5534 20.9333 66.8468 19.6133 67.1934 18.12C67.1668 18.0667 67.1134 17.9467 67.0334 17.76C66.9801 17.5467 66.8868 17.28 66.7534 16.96C66.6201 16.6133 66.5134 16.36 66.4334 16.2C66.3534 16.04 66.3134 15.96 66.3134 15.96C66.3134 15.7733 66.5401 15.6 66.9934 15.44C68.3268 14.9333 69.1801 14.68 69.5534 14.68C69.9534 14.68 70.1534 14.8 70.1534 15.04C70.1268 14.96 69.4468 16.6667 68.1134 20.16V20.52C68.1134 21.2667 67.9934 21.64 67.7534 21.64C67.7268 21.64 67.6868 21.6 67.6334 21.52C67.4201 22.1867 67.2068 22.8267 66.9934 23.44C66.8068 24.0267 66.6334 24.6133 66.4734 25.2C67.0601 24.24 67.6601 23.32 68.2734 22.44C68.9134 21.56 69.5668 20.7333 70.2334 19.96C72.2334 17.64 73.8868 16.48 75.1934 16.48C75.8068 16.48 76.1134 16.72 76.1134 17.2C76.1134 17.36 76.0734 17.56 75.9934 17.8C75.7534 18.7067 75.4468 19.8533 75.0734 21.24C74.7268 22.6 74.3001 24.1867 73.7934 26C75.3401 24.8533 76.5401 23.6267 77.3934 22.32C77.5268 22.16 77.6201 22.08 77.6734 22.08C77.7534 22.08 77.7934 22.1333 77.7934 22.24C77.7934 22.2933 77.7534 22.3867 77.6734 22.52C76.5001 24.6 75.0734 26.2533 73.3934 27.48C73.2868 27.64 73.1134 27.72 72.8734 27.72C72.6868 27.72 72.5934 27.6133 72.5934 27.4C72.5934 27.3467 72.6201 27.1067 72.6734 26.68C72.7534 26.2267 72.8734 25.6 73.0334 24.8C73.1668 24.2133 73.2868 23.64 73.3934 23.08C73.5001 22.52 73.6068 21.9467 73.7134 21.36C73.8468 20.6933 73.9268 20.08 73.9534 19.52C74.0068 18.9333 74.0468 18.4 74.0734 17.92C73.4868 18.1867 72.8468 18.6267 72.1534 19.24C71.4868 19.8267 70.7401 20.5733 69.9134 21.48C68.3934 23.16 67.3001 24.6267 66.6334 25.88C66.2601 26.6 65.9801 27.3733 65.7934 28.2C65.6868 28.6267 65.5268 28.84 65.3134 28.84ZM67.4334 17.04L67.7934 15.72C67.6601 15.8267 67.4068 15.96 67.0334 16.12C67.1134 16.28 67.1801 16.44 67.2334 16.6C67.3134 16.76 67.3801 16.9067 67.4334 17.04ZM78.4587 35.32C77.2321 35.32 76.6187 34.9333 76.6187 34.16C76.6187 33.6 76.7787 33.2 77.0987 32.96C77.0187 33.2 76.9787 33.4533 76.9787 33.72C76.9787 34.44 77.4854 34.8 78.4987 34.8C80.2587 34.8 82.2854 33.9333 84.5788 32.2C84.3388 32.0667 84.1254 31.9333 83.9387 31.8C83.7254 31.6667 83.5254 31.5467 83.3387 31.44C81.5254 32.7467 80.0854 33.4 79.0187 33.4C78.8321 33.4 78.7387 33.3467 78.7387 33.24C78.7387 33.0533 78.8721 32.9467 79.1387 32.92C79.8321 32.68 80.4854 32.4 81.0987 32.08C81.7121 31.76 82.2987 31.4 82.8587 31C82.0587 30.2267 81.6587 29.4267 81.6587 28.6C81.6587 27.0533 82.8721 25.68 85.2988 24.48C86.1521 24.0267 87.0454 23.6533 87.9788 23.36C88.9121 23.04 89.8988 22.7867 90.9388 22.6C92.8054 20.1467 94.4454 17.6667 95.8588 15.16C97.2988 12.6267 98.4988 10.0933 99.4588 7.56C99.5654 7.32 99.7254 6.84 99.9388 6.12C100.179 5.37333 100.472 4.41333 100.819 3.24C100.845 3.05333 100.952 2.96 101.139 2.96C101.165 2.98667 101.179 3.01333 101.179 3.04C101.179 5.17333 99.9788 8.52 97.5788 13.08C96.6454 14.8933 95.6854 16.5867 94.6988 18.16C93.7388 19.7067 92.7921 21.1333 91.8588 22.44C92.1521 22.3867 92.4588 22.3467 92.7788 22.32C93.0988 22.2933 93.4321 22.2667 93.7788 22.24C94.7921 20.8267 95.7521 19.3733 96.6588 17.88C97.5921 16.36 98.4988 14.7867 99.3788 13.16C100.499 11.0267 101.339 9.18667 101.899 7.64C102.485 6.06667 102.779 4.77333 102.779 3.76C102.779 2.53333 102.232 1.84 101.139 1.68C100.899 1.62667 100.779 1.54667 100.779 1.44C100.779 1.28 100.925 1.2 101.219 1.2C102.179 1.2 102.939 1.50667 103.499 2.12C104.032 2.78667 104.299 3.6 104.299 4.56C104.299 5.68 104.032 7 103.499 8.52C102.965 10.0133 102.179 11.72 101.139 13.64C100.339 15.08 99.4721 16.5067 98.5388 17.92C97.6054 19.3067 96.6188 20.6933 95.5788 22.08C96.0321 22.0267 96.6321 21.9733 97.3788 21.92C98.1521 21.8667 99.0721 21.8267 100.139 21.8C100.805 21.7733 101.312 21.76 101.659 21.76C102.005 21.7333 102.205 21.72 102.259 21.72H102.219C102.219 21.72 102.232 21.72 102.259 21.72C102.419 21.72 102.499 21.76 102.499 21.84C102.499 22.08 102.259 22.2267 101.779 22.28C101.539 22.28 101.232 22.2933 100.859 22.32C100.485 22.3467 100.059 22.3867 99.5788 22.44C98.6188 22.4933 97.7521 22.56 96.9788 22.64C96.2321 22.6933 95.5654 22.76 94.9788 22.84C93.3521 24.84 91.7654 26.6133 90.2188 28.16C88.6721 29.7333 87.1521 31.08 85.6588 32.2C86.3788 32.5467 87.5654 32.8667 89.2188 33.16C89.4588 33.1867 89.5788 33.2667 89.5788 33.4C89.5788 33.5333 89.4454 33.6 89.1788 33.6C88.1388 33.6 86.8321 33.24 85.2588 32.52C82.6454 34.3867 80.3787 35.32 78.4587 35.32ZM108.539 32.88C107.632 32.88 106.659 32.4667 105.619 31.64C104.632 30.84 103.925 29.96 103.499 29C103.205 28.36 102.992 27.6133 102.859 26.76C102.725 25.88 102.659 24.88 102.659 23.76C102.659 23.0667 102.725 21.8267 102.859 20.04C103.019 18.2533 103.272 15.9333 103.619 13.08C103.645 12.8933 103.685 12.48 103.739 11.84C103.819 11.2 103.899 10.3333 103.979 9.24C104.005 8.76 104.099 8.52 104.259 8.52C104.499 8.52 104.632 8.8 104.659 9.36V15.72C104.659 22.76 105.232 27.56 106.379 30.12C107.072 31.6933 107.872 32.48 108.779 32.48C109.952 32.48 111.272 31.3333 112.739 29.04C112.712 29.4933 112.432 30.08 111.899 30.8C111.632 31.1467 111.365 31.4533 111.099 31.72C110.859 31.9867 110.632 32.1867 110.419 32.32C109.752 32.6933 109.125 32.88 108.539 32.88ZM85.0188 31.88C86.2988 30.8667 87.6054 29.6133 88.9388 28.12C90.2988 26.6533 91.6854 24.9867 93.0988 23.12C92.7254 23.2 92.3521 23.2933 91.9788 23.4C91.6321 23.48 91.2854 23.5733 90.9388 23.68C89.7388 25.2267 88.5521 26.6133 87.3788 27.84C86.2054 29.04 85.0588 30.08 83.9387 30.96C84.0721 31.1467 84.2321 31.3067 84.4188 31.44C84.6321 31.6 84.8321 31.7467 85.0188 31.88ZM83.6187 30.44C85.6454 28.8133 87.7388 26.6667 89.8988 24C89.1254 24.2667 88.3921 24.5733 87.6988 24.92C87.0054 25.2667 86.3788 25.64 85.8188 26.04C84.2188 27.1067 83.4187 28.24 83.4187 29.44C83.4187 29.76 83.4854 30.0933 83.6187 30.44ZM111.02 28.52C110.833 28.52 110.593 28.44 110.3 28.28C110.006 28.0667 109.86 27.8933 109.86 27.76C109.94 27.6 110.006 27.4267 110.06 27.24C110.14 27.0533 110.233 26.8667 110.34 26.68C110.82 25.6667 111.26 24.6533 111.66 23.64C112.06 22.6267 112.393 21.6133 112.66 20.6C112.926 19.64 113.06 18.5067 113.06 17.2C113.006 17.4667 112.833 17.8667 112.54 18.4C112.273 18.9067 111.913 19.5467 111.46 20.32C111.033 21.0667 110.646 21.6933 110.3 22.2C109.98 22.68 109.713 23.0667 109.5 23.36C109.5 23.3867 109.473 23.4 109.42 23.4C109.286 23.4 109.22 23.3467 109.22 23.24C109.22 23.1867 109.233 23.1467 109.26 23.12C109.446 22.8267 109.633 22.52 109.82 22.2C110.033 21.88 110.26 21.5333 110.5 21.16C111.22 19.9867 111.793 18.9333 112.22 18C112.646 17.0667 112.953 16.24 113.14 15.52C113.3 14.8267 113.566 14.48 113.94 14.48C114.366 14.48 114.58 15.0133 114.58 16.08C114.58 18 113.966 20.36 112.74 23.16C114.18 21.3467 115.18 20.1467 115.74 19.56C117.26 17.9333 118.446 17.12 119.3 17.12C120.153 17.12 120.58 17.68 120.58 18.8C120.58 19.5733 120.366 20.2533 119.94 20.84C119.433 21.5867 118.966 21.96 118.54 21.96C118.46 21.96 118.42 21.9067 118.42 21.8C118.42 21.8 118.566 21.4667 118.86 20.8C119.153 20.1333 119.3 19.56 119.3 19.08C119.3 18.36 119.073 18 118.62 18C118.006 18 116.966 18.8133 115.5 20.44C114.326 21.7733 113.473 22.9067 112.94 23.84C112.913 23.92 112.793 24.24 112.58 24.8C112.366 25.36 112.046 26.1867 111.62 27.28C111.566 27.44 111.5 27.6267 111.42 27.84C111.366 28.0267 111.3 28.2267 111.22 28.44C111.166 28.4933 111.1 28.52 111.02 28.52ZM125.712 28.96C124.378 28.96 123.712 28.1467 123.712 26.52C123.712 25.3467 124.005 23.8933 124.592 22.16C124.485 21.8133 124.298 21.5067 124.032 21.24C123.765 20.9467 123.418 20.7067 122.992 20.52C122.645 20.36 122.285 20.2133 121.912 20.08C121.565 19.9467 121.205 19.8 120.832 19.64C120.485 19.48 120.312 19.2 120.312 18.8C120.312 18.3733 120.498 18.12 120.872 18.04H121.952C123.365 18.04 124.845 17.88 126.392 17.56L126.432 17.48L129.072 11.64C129.205 11.3467 129.365 10.9733 129.552 10.52C129.738 10.0667 129.965 9.54667 130.232 8.96C130.445 8.48 130.965 8.24 131.792 8.24C132.352 8.24 132.632 8.37333 132.632 8.64C132.632 8.72 132.138 9.84 131.152 12C130.138 14.24 129.578 15.4133 129.472 15.52C129.418 15.5733 129.325 15.6667 129.192 15.8C129.085 15.9067 128.952 16.0267 128.792 16.16C128.685 16.3467 128.525 16.6667 128.312 17.12C128.712 16.9867 129.392 16.76 130.352 16.44C131.338 16.0933 132.605 15.6533 134.152 15.12C134.258 15.0933 134.352 15.08 134.432 15.08C134.512 15.0533 134.565 15.04 134.592 15.04C134.698 15.04 134.752 15.0667 134.752 15.12C134.752 15.5733 132.498 16.44 127.992 17.72C127.458 18.76 127.005 19.6533 126.632 20.4C126.258 21.12 125.978 21.7067 125.792 22.16C125.445 23.0133 125.178 23.84 124.992 24.64C124.832 25.4133 124.752 26.1733 124.752 26.92C124.752 27.8 125.045 28.24 125.632 28.24C126.352 28.24 127.298 27.7333 128.472 26.72C129.085 26.1867 129.538 25.8 129.832 25.56C130.125 25.2933 130.272 25.16 130.272 25.16C130.352 25.16 130.392 25.2 130.392 25.28C130.392 25.36 130.352 25.48 130.272 25.64C129.845 26.28 129.165 26.96 128.232 27.68C127.138 28.5333 126.298 28.96 125.712 28.96ZM124.752 21.6C124.938 21.0667 125.138 20.52 125.352 19.96C125.592 19.4 125.845 18.8267 126.112 18.24C125.445 18.4 124.765 18.5467 124.072 18.68C123.405 18.8133 122.738 18.9333 122.072 19.04C123.458 19.76 124.352 20.6133 124.752 21.6ZM135.982 14.52C135.449 14.52 135.182 14.24 135.182 13.68C135.182 13.3867 135.342 13.0667 135.662 12.72C135.849 12.5067 136.009 12.3333 136.142 12.2C136.302 12.0667 136.449 11.9733 136.582 11.92C137.542 11.4667 138.116 11.24 138.302 11.24C138.382 11.24 138.422 11.2667 138.422 11.32C138.422 11.4 138.116 11.7867 137.502 12.48C137.476 12.5067 137.422 12.6267 137.342 12.84C137.262 13.0267 137.116 13.32 136.902 13.72C136.662 14.2533 136.356 14.52 135.982 14.52ZM133.582 27.36C132.222 27.36 131.542 26.68 131.542 25.32C131.542 24.3067 131.809 23.0267 132.342 21.48C132.236 21.6667 132.116 21.8533 131.982 22.04C131.876 22.2267 131.756 22.4133 131.622 22.6C131.276 23.1867 131.036 23.48 130.902 23.48C130.849 23.48 130.822 23.44 130.822 23.36C130.822 23.1467 130.902 22.9467 131.062 22.76C131.702 21.88 132.409 20.6133 133.182 18.96C133.262 18.7467 133.369 18.48 133.502 18.16C133.662 17.84 133.849 17.48 134.062 17.08C134.196 16.84 134.529 16.72 135.062 16.72C135.516 16.72 135.742 16.8533 135.742 17.12C135.742 17.3867 135.622 17.7867 135.382 18.32C135.089 18.8533 134.849 19.16 134.662 19.24C133.276 22.0133 132.582 24.0533 132.582 25.36C132.582 26.24 132.876 26.68 133.462 26.68C134.422 26.68 135.476 25.9867 136.622 24.6C137.822 23.2133 138.409 22.52 138.382 22.52C138.436 22.52 138.462 22.56 138.462 22.64C138.462 22.6667 138.436 22.76 138.382 22.92C138.142 23.3467 137.836 23.7867 137.462 24.24C137.116 24.6667 136.716 25.12 136.262 25.6C135.089 26.7733 134.196 27.36 133.582 27.36ZM142.415 28.48C141.162 28.48 140.029 27.96 139.015 26.92C138.029 25.8533 137.535 24.6933 137.535 23.44C137.535 22.6133 137.749 22.2 138.175 22.2C138.442 22.2 138.709 22.4 138.975 22.8C139.775 20.9333 140.909 18.8267 142.375 16.48C143.309 15.04 144.402 14.32 145.655 14.32C145.922 14.32 146.229 14.4133 146.575 14.6C146.949 14.8133 147.135 15.04 147.135 15.28C147.135 15.4667 146.962 15.56 146.615 15.56C146.589 15.56 146.549 15.56 146.495 15.56C146.442 15.56 146.375 15.5467 146.295 15.52H145.975C145.362 15.52 144.842 15.6933 144.415 16.04C143.962 16.4133 143.735 16.88 143.735 17.44C143.735 17.6533 143.775 17.88 143.855 18.12C144.015 18.6533 144.175 19.1867 144.335 19.72C144.495 20.2533 144.655 20.7867 144.815 21.32C145.002 21.96 145.135 22.56 145.215 23.12C145.322 23.6533 145.375 24.1467 145.375 24.6C146.095 24.4933 146.709 24.2267 147.215 23.8C147.535 23.5333 147.962 23 148.495 22.2C148.575 22.0933 148.655 22.04 148.735 22.04C148.815 22.04 148.855 22.0933 148.855 22.2C148.855 22.3067 148.829 22.4 148.775 22.48C147.869 24 146.749 24.8933 145.415 25.16C145.335 26.0933 145.055 26.8667 144.575 27.48C144.069 28.1467 143.349 28.48 142.415 28.48ZM143.735 25.12C143.762 25.0133 143.775 24.92 143.775 24.84C143.775 24.76 143.775 24.6667 143.775 24.56C143.775 24.2133 143.709 23.7467 143.575 23.16C143.469 22.5467 143.309 21.8 143.095 20.92C142.695 19.24 142.549 18.12 142.655 17.56C141.962 18.28 140.829 20.2 139.255 23.32C139.762 23.5867 140.189 23.8267 140.535 24.04C140.909 24.2267 141.202 24.3733 141.415 24.48C142.215 24.8533 142.989 25.0667 143.735 25.12ZM141.575 27.16C142.642 27.16 143.349 26.64 143.695 25.6C141.562 25.6 139.935 25.16 138.815 24.28C138.869 24.8933 139.189 25.52 139.775 26.16C140.362 26.8267 140.962 27.16 141.575 27.16ZM153.212 28.96C151.878 28.96 151.212 28.1467 151.212 26.52C151.212 25.3467 151.505 23.8933 152.092 22.16C151.985 21.8133 151.798 21.5067 151.532 21.24C151.265 20.9467 150.918 20.7067 150.492 20.52C150.145 20.36 149.785 20.2133 149.412 20.08C149.065 19.9467 148.705 19.8 148.332 19.64C147.985 19.48 147.812 19.2 147.812 18.8C147.812 18.3733 147.998 18.12 148.372 18.04H149.452C150.865 18.04 152.345 17.88 153.892 17.56L153.932 17.48L156.572 11.64C156.705 11.3467 156.865 10.9733 157.052 10.52C157.238 10.0667 157.465 9.54667 157.732 8.96C157.945 8.48 158.465 8.24 159.292 8.24C159.852 8.24 160.132 8.37333 160.132 8.64C160.132 8.72 159.638 9.84 158.652 12C157.638 14.24 157.078 15.4133 156.972 15.52C156.918 15.5733 156.825 15.6667 156.692 15.8C156.585 15.9067 156.452 16.0267 156.292 16.16C156.185 16.3467 156.025 16.6667 155.812 17.12C156.212 16.9867 156.892 16.76 157.852 16.44C158.838 16.0933 160.105 15.6533 161.652 15.12C161.758 15.0933 161.852 15.08 161.932 15.08C162.012 15.0533 162.065 15.04 162.092 15.04C162.198 15.04 162.252 15.0667 162.252 15.12C162.252 15.5733 159.998 16.44 155.492 17.72C154.958 18.76 154.505 19.6533 154.132 20.4C153.758 21.12 153.478 21.7067 153.292 22.16C152.945 23.0133 152.678 23.84 152.492 24.64C152.332 25.4133 152.252 26.1733 152.252 26.92C152.252 27.8 152.545 28.24 153.132 28.24C153.852 28.24 154.798 27.7333 155.972 26.72C156.585 26.1867 157.038 25.8 157.332 25.56C157.625 25.2933 157.772 25.16 157.772 25.16C157.852 25.16 157.892 25.2 157.892 25.28C157.892 25.36 157.852 25.48 157.772 25.64C157.345 26.28 156.665 26.96 155.732 27.68C154.638 28.5333 153.798 28.96 153.212 28.96ZM152.252 21.6C152.438 21.0667 152.638 20.52 152.852 19.96C153.092 19.4 153.345 18.8267 153.612 18.24C152.945 18.4 152.265 18.5467 151.572 18.68C150.905 18.8133 150.238 18.9333 149.572 19.04C150.958 19.76 151.852 20.6133 152.252 21.6ZM160.082 28.52C159.896 28.52 159.656 28.44 159.362 28.28C159.069 28.0667 158.922 27.8933 158.922 27.76C159.002 27.6 159.069 27.4267 159.122 27.24C159.202 27.0533 159.296 26.8667 159.402 26.68C159.882 25.6667 160.322 24.6533 160.722 23.64C161.122 22.6267 161.456 21.6133 161.722 20.6C161.989 19.64 162.122 18.5067 162.122 17.2C162.069 17.4667 161.896 17.8667 161.602 18.4C161.336 18.9067 160.976 19.5467 160.522 20.32C160.096 21.0667 159.709 21.6933 159.362 22.2C159.042 22.68 158.776 23.0667 158.562 23.36C158.562 23.3867 158.536 23.4 158.482 23.4C158.349 23.4 158.282 23.3467 158.282 23.24C158.282 23.1867 158.296 23.1467 158.322 23.12C158.509 22.8267 158.696 22.52 158.882 22.2C159.096 21.88 159.322 21.5333 159.562 21.16C160.282 19.9867 160.856 18.9333 161.282 18C161.709 17.0667 162.016 16.24 162.202 15.52C162.362 14.8267 162.629 14.48 163.002 14.48C163.429 14.48 163.642 15.0133 163.642 16.08C163.642 18 163.029 20.36 161.802 23.16C163.242 21.3467 164.242 20.1467 164.802 19.56C166.322 17.9333 167.509 17.12 168.362 17.12C169.216 17.12 169.642 17.68 169.642 18.8C169.642 19.5733 169.429 20.2533 169.002 20.84C168.496 21.5867 168.029 21.96 167.602 21.96C167.522 21.96 167.482 21.9067 167.482 21.8C167.482 21.8 167.629 21.4667 167.922 20.8C168.216 20.1333 168.362 19.56 168.362 19.08C168.362 18.36 168.136 18 167.682 18C167.069 18 166.029 18.8133 164.562 20.44C163.389 21.7733 162.536 22.9067 162.002 23.84C161.976 23.92 161.856 24.24 161.642 24.8C161.429 25.36 161.109 26.1867 160.682 27.28C160.629 27.44 160.562 27.6267 160.482 27.84C160.429 28.0267 160.362 28.2267 160.282 28.44C160.229 28.4933 160.162 28.52 160.082 28.52ZM165.614 44.32C164.121 44.32 162.561 43.7067 160.934 42.48C159.307 41.2533 158.494 39.9733 158.494 38.64C158.494 38.5333 158.534 38.48 158.614 38.48C158.667 38.48 158.734 38.56 158.814 38.72C159.934 41.52 161.961 42.92 164.894 42.92C166.387 42.92 167.774 42.56 169.054 41.84C171.534 40.4533 173.467 38.28 174.854 35.32C175.281 34.3867 175.694 33.2 176.094 31.76C176.521 30.3467 176.921 28.68 177.294 26.76C177.454 25.9067 177.654 24.84 177.894 23.56C178.134 22.28 178.481 20.8 178.934 19.12L179.614 16.64C177.934 17.9467 175.921 21.6933 173.574 27.88C173.574 27.9333 173.521 27.96 173.414 27.96C173.201 27.96 173.001 27.8667 172.814 27.68C172.601 27.4667 172.494 27.2667 172.494 27.08C172.494 27.08 172.601 26.8 172.814 26.24C173.054 25.7067 173.174 25.4267 173.174 25.4C173.681 23.9067 173.934 21.72 173.934 18.84C173.934 16.6533 173.467 15.56 172.534 15.56C172.027 15.56 171.401 15.8933 170.654 16.56C169.907 17.2533 169.534 17.6 169.534 17.6C169.454 17.6 169.414 17.5467 169.414 17.44C169.414 17.4133 169.441 17.32 169.494 17.16C169.867 16.5733 170.467 15.9867 171.294 15.4C172.174 14.76 172.907 14.44 173.494 14.44C174.614 14.44 175.174 15.52 175.174 17.68C175.174 19.44 174.814 21.3867 174.094 23.52C176.307 19.44 178.187 17 179.734 16.2C180.134 14.76 180.587 13.7467 181.094 13.16C181.761 12.3333 182.747 11.92 184.054 11.92C184.534 11.92 184.774 12 184.774 12.16C184.774 12.24 184.707 12.3067 184.574 12.36C184.227 12.44 183.921 12.5467 183.654 12.68C182.454 13.5333 181.414 15.8133 180.534 19.52C179.894 22.2133 179.401 24.2933 179.054 25.76C178.707 27.2 178.507 28.0267 178.454 28.24C177.947 30.0267 177.414 31.6533 176.854 33.12C176.321 34.5867 175.734 35.8933 175.094 37.04C173.467 39.9467 171.467 42.0667 169.094 43.4C168.001 44.0133 166.841 44.32 165.614 44.32Z" fill="white"/>
</svg>
