<svg width="140" height="188" viewBox="0 0 140 188" fill="none" xmlns="http://www.w3.org/2000/svg">
<path fill-rule="evenodd" clip-rule="evenodd" d="M77.0468 136.959C97.5832 133.514 113.29 115.534 113.29 93.8995C113.29 87.2201 111.778 80.8767 109.09 75.2055C107.914 72.7689 106.571 70.4584 104.975 68.274L124.755 50C125.217 50.5461 125.637 51.1342 126.057 51.6804C134.834 63.4429 140 78.0621 140 93.8995C140 94.4037 140 94.9498 140 95.4539C139.37 125.49 120.01 150.906 93.2155 160.4C88.0499 162.206 82.6323 163.467 77.0468 164.055L77.0048 188L45.0032 159.854L34 150.192L52.6466 133.934L77.1727 112.594L77.0468 136.959Z" fill="#CFD8DC"/>
<path fill-rule="evenodd" clip-rule="evenodd" d="M0 92.518C0.672749 62.2386 20.3086 36.6628 47.4708 27.3396C52.3903 25.6598 57.5621 24.4839 62.9441 23.9379L62.9861 0L94.9837 28.0956L106 37.7967L87.3733 54.0073L62.8179 75.3834L62.902 51.0676C42.3832 54.5533 26.7418 72.5277 26.7418 94.0718C26.7418 100.791 28.2555 107.133 30.9885 112.844C32.1238 115.28 33.5113 117.548 35.067 119.69L15.305 138C14.7584 137.328 14.2118 136.614 13.7073 135.9C5.08766 124.183 0 109.736 0 94.0718C0 93.5679 0 93.0219 0 92.518Z" fill="#CFD8DC"/>
</svg>
