<svg width="134" height="156" viewBox="0 0 134 156" fill="none" xmlns="http://www.w3.org/2000/svg">
<path fill-rule="evenodd" clip-rule="evenodd" d="M67.5 14C50.6824 14 37 27.6824 37 44.5C37 61.3176 50.6824 75 67.5 75C84.3176 75 98 61.3176 98 44.5C98 27.6824 84.3176 14 67.5 14Z" fill="#CFD8DC"/>
<path fill-rule="evenodd" clip-rule="evenodd" d="M67.5 0C42.9235 0 23 19.9235 23 44.5C23 69.0765 42.9235 89 67.5 89C92.0765 89 112 69.0765 112 44.5C112 19.9235 92.0765 0 67.5 0ZM67.5 77.875C49.0673 77.875 34.125 62.9327 34.125 44.5C34.125 26.0673 49.0673 11.125 67.5 11.125C85.9327 11.125 100.875 26.0673 100.875 44.5C100.875 62.9327 85.9327 77.875 67.5 77.875Z" fill="#CFD8DC"/>
<path fill-rule="evenodd" clip-rule="evenodd" d="M29.0916 77L0 128.009H33.6109L50.4164 156L67.2218 118.98L79 93.0348C75.2212 93.9389 71.2779 94.4207 67.2218 94.4207C51.9901 94.4207 38.3364 87.6704 29.0916 77Z" fill="#CFD8DC"/>
<path fill-rule="evenodd" clip-rule="evenodd" d="M104.629 77C99.2994 83.0922 92.5187 87.9066 84.8188 90.9163L69 125.237L83.0992 156L100.066 128.009H134L104.629 77Z" fill="#CFD8DC"/>
</svg>
